<svg id="Community" xmlns="http://www.w3.org/2000/svg" xmlns:xlink="http://www.w3.org/1999/xlink" width="94" height="94" viewBox="0 0 94 94">
  <defs>
    <clipPath id="clip-path">
      <path id="Clip_16" data-name="Clip 16" d="M0,0H20.2V20.2H0Z" fill="none"/>
    </clipPath>
    <clipPath id="clip-path-2">
      <path id="Clip_19" data-name="Clip 19" d="M0,0H10.1V20.2H0Z" fill="none"/>
    </clipPath>
  </defs>
  <path id="Fill_1" data-name="Fill 1" d="M0,0V7.789L19.258,27.047l3.894-3.894Z" transform="translate(52.875 54.488)" fill="#000f02"/>
  <path id="Fill_2" data-name="Fill 2" d="M0,3.894,21.041,24.935V17.146L3.895,0Z" transform="translate(20.084 25.592)" fill="#b8b9b9"/>
  <path id="Fill_3" data-name="Fill 3" d="M17.147,0,0,17.146v7.789L21.041,3.894Z" transform="translate(52.875 25.592)" fill="#000f02"/>
  <path id="Fill_4" data-name="Fill 4" d="M3.895,26.955,23.061,7.789V0L0,23.061Z" transform="translate(18.064 54.488)" fill="#b8b9b9"/>
  <g id="Group_49" data-name="Group 49">
    <path id="Fill_5" data-name="Fill 5" d="M21.113,42.227A21.113,21.113,0,1,1,42.227,21.113,21.137,21.137,0,0,1,21.113,42.227" transform="translate(25.887 25.887)" fill="#92addf"/>
    <path id="Fill_7" data-name="Fill 7" d="M0,0V42.227A21.137,21.137,0,0,0,21.113,21.113,21.137,21.137,0,0,0,0,0" transform="translate(47 25.887)" fill="#1b2f54"/>
    <path id="Fill_9" data-name="Fill 9" d="M21.113,42.226A21.113,21.113,0,1,1,42.226,21.113,21.137,21.137,0,0,1,21.113,42.226Zm-4.5-18.359a31.242,31.242,0,0,0,1.863,9.205c1.1,2.755,2.252,3.647,2.636,3.647s1.534-.891,2.636-3.647a31.21,31.21,0,0,0,1.863-9.205Zm14.516,0a37.556,37.556,0,0,1-2.054,10.66,15.615,15.615,0,0,0,7.394-10.66Zm-25.375,0a15.62,15.62,0,0,0,7.4,10.66A37.561,37.561,0,0,1,11.1,23.867ZM29.076,7.7a37.586,37.586,0,0,1,2.055,10.66h5.34A15.615,15.615,0,0,0,29.076,7.7ZM21.113,5.508c-.384,0-1.534.891-2.636,3.646a31.242,31.242,0,0,0-1.863,9.205h9a31.21,31.21,0,0,0-1.863-9.205C22.648,6.4,21.5,5.508,21.113,5.508ZM13.151,7.7a15.619,15.619,0,0,0-7.4,10.66H11.1A37.559,37.559,0,0,1,13.151,7.7Z" transform="translate(25.887 25.887)" fill="#f15954"/>
    <path id="Fill_11" data-name="Fill 11" d="M27.539,16.523H0V8.262A8.271,8.271,0,0,1,8.262,0H19.277a8.271,8.271,0,0,1,8.262,8.262Z" transform="translate(0 14.687)" fill="#92addf"/>
    <path id="Fill_13" data-name="Fill 13" d="M5.508,0H0V16.523H13.77V8.262A8.271,8.271,0,0,0,5.508,0" transform="translate(13.77 14.687)" fill="#1b2f54"/>
    <g id="Group_17" data-name="Group 17" transform="translate(3.672)">
      <path id="Clip_16-2" data-name="Clip 16" d="M0,0H20.2V20.2H0Z" fill="none"/>
      <g id="Group_17-2" data-name="Group 17" clip-path="url(#clip-path)">
        <path id="Fill_15" data-name="Fill 15" d="M10.1,20.2A10.1,10.1,0,1,1,20.2,10.1,10.109,10.109,0,0,1,10.1,20.2" transform="translate(0 0)" fill="#e6e3d8"/>
      </g>
    </g>
    <g id="Group_20" data-name="Group 20" transform="translate(13.77)">
      <path id="Clip_19-2" data-name="Clip 19" d="M0,0H10.1V20.2H0Z" fill="none"/>
      <g id="Group_20-2" data-name="Group 20" clip-path="url(#clip-path-2)">
        <path id="Fill_18" data-name="Fill 18" d="M0,0V20.2A10.109,10.109,0,0,0,10.1,10.1,10.109,10.109,0,0,0,0,0" transform="translate(0 0)" fill="#b29f84"/>
      </g>
    </g>
    <path id="Fill_21" data-name="Fill 21" d="M0,42.226H0V36.719c.386,0,1.535-.892,2.636-3.647A31.2,31.2,0,0,0,4.5,23.867H0V18.359H4.5A31.21,31.21,0,0,0,2.636,9.154C1.535,6.4.384,5.508,0,5.508V0A21.137,21.137,0,0,1,21.113,21.113,21.137,21.137,0,0,1,0,42.226ZM10.017,23.867a37.556,37.556,0,0,1-2.054,10.66,15.615,15.615,0,0,0,7.394-10.66ZM7.963,7.7a37.586,37.586,0,0,1,2.055,10.66h5.34A15.615,15.615,0,0,0,7.963,7.7Z" transform="translate(47 25.887)" fill="#e03c61"/>
    <path id="Fill_23" data-name="Fill 23" d="M27.539,16.523H0V8.262A8.271,8.271,0,0,1,8.262,0H19.277a8.271,8.271,0,0,1,8.262,8.262Z" transform="translate(66.461 14.687)" fill="#f6b6af"/>
    <path id="Fill_25" data-name="Fill 25" d="M5.508,0H0V16.523H13.77V8.262A8.271,8.271,0,0,0,5.508,0" transform="translate(80.23 14.687)" fill="#e03c61"/>
    <g id="Group_29" data-name="Group 29" transform="translate(70.133)">
      <path id="Clip_28-2" data-name="Clip 28" d="M0,0H20.2V20.2H0Z" fill="none"/>
      <g id="Group_29-2" data-name="Group 29" clip-path="url(#clip-path)">
        <path id="Fill_27" data-name="Fill 27" d="M10.1,20.2A10.1,10.1,0,1,1,20.2,10.1,10.109,10.109,0,0,1,10.1,20.2" transform="translate(0 0)" fill="#e6e3d8"/>
      </g>
    </g>
    <g id="Group_32" data-name="Group 32" transform="translate(80.23)">
      <path id="Clip_31-2" data-name="Clip 31" d="M0,0H10.1V20.2H0Z" fill="none"/>
      <g id="Group_32-2" data-name="Group 32" clip-path="url(#clip-path-2)">
        <path id="Fill_30" data-name="Fill 30" d="M0,0V20.2A10.109,10.109,0,0,0,10.1,10.1,10.109,10.109,0,0,0,0,0" transform="translate(0 0)" fill="#b29f84"/>
      </g>
    </g>
    <path id="Fill_33" data-name="Fill 33" d="M27.539,16.523H0V8.262A8.271,8.271,0,0,1,8.262,0H19.277a8.271,8.271,0,0,1,8.262,8.262Z" transform="translate(0 77.477)" fill="#66d9c1"/>
    <path id="Fill_35" data-name="Fill 35" d="M5.508,0H0V16.523H13.77V8.262A8.271,8.271,0,0,0,5.508,0" transform="translate(13.77 77.477)" fill="#92addf"/>
    <path id="Fill_37" data-name="Fill 37" d="M10.1,20.2A10.1,10.1,0,1,1,20.2,10.1,10.109,10.109,0,0,1,10.1,20.2" transform="translate(3.672 62.789)" fill="#e6e3d8"/>
    <path id="Fill_39" data-name="Fill 39" d="M0,0V20.2A10.109,10.109,0,0,0,10.1,10.1,10.109,10.109,0,0,0,0,0" transform="translate(13.77 62.789)" fill="#b29f84"/>
    <path id="Fill_41" data-name="Fill 41" d="M27.539,16.523H0V8.262A8.271,8.271,0,0,1,8.262,0H19.277a8.271,8.271,0,0,1,8.262,8.262Z" transform="translate(66.461 77.477)" fill="#8b8992"/>
    <path id="Fill_43" data-name="Fill 43" d="M5.508,0H0V16.523H13.77V8.262A8.271,8.271,0,0,0,5.508,0" transform="translate(80.23 77.477)" fill="#000f02"/>
    <path id="Fill_45" data-name="Fill 45" d="M10.1,20.2A10.1,10.1,0,1,1,20.2,10.1,10.109,10.109,0,0,1,10.1,20.2" transform="translate(70.133 62.789)" fill="#e6e3d8"/>
    <path id="Fill_47" data-name="Fill 47" d="M0,0V20.2A10.109,10.109,0,0,0,10.1,10.1,10.109,10.109,0,0,0,0,0" transform="translate(80.23 62.789)" fill="#b29f84"/>
  </g>
</svg>
