<svg id="Group_2" data-name="Group 2" xmlns="http://www.w3.org/2000/svg" width="19" height="22" viewBox="0 0 19 22">
  <path id="Shape" d="M18.23,14H.77A.774.774,0,0,1,0,13.222V.778A.774.774,0,0,1,.77,0H4.622a.778.778,0,0,1,0,1.556H1.541V12.444H17.459V1.556H13.865a.778.778,0,0,1,0-1.556H18.23A.774.774,0,0,1,19,.778V13.222a.774.774,0,0,1-.77.778Z" transform="translate(0 8)"/>
  <path id="Shape-2" data-name="Shape" d="M4.512,16a.812.812,0,0,1-.845-.774V2.952L1.5,5.388A.9.9,0,0,1,.313,5.5.731.731,0,0,1,.189,4.413L3.931.206A3.855,3.855,0,0,1,4.495,0h0a3.607,3.607,0,0,1,.654.294L8.812,4.423A.725.725,0,0,1,9,4.989a.754.754,0,0,1-.308.518.9.9,0,0,1-.62.169A.869.869,0,0,1,7.5,5.394L5.334,2.957V15.226A.81.81,0,0,1,4.512,16Z" transform="translate(14 16) rotate(180)"/>
</svg>
