<?xml version="1.0" encoding="utf-8"?>
<!-- Generator: Adobe Illustrator 24.1.0, SVG Export Plug-In . SVG Version: 6.00 Build 0)  -->
<svg version="1.1" id="_3x3_Grid" xmlns="http://www.w3.org/2000/svg" xmlns:xlink="http://www.w3.org/1999/xlink" x="0px" y="0px"
	 viewBox="0 0 18 18" style="enable-background:new 0 0 18 18;" xml:space="preserve">
<style type="text/css">
	.st0{fill:#14284B;}
	.st1{fill:#989898;}
</style>
<g>
	<rect id="Rectangle" class="st0" width="4" height="4"/>
	<rect id="Rectangle_Copy_7" y="7" class="st0" width="4" height="4"/>
	<rect id="Rectangle_Copy_10" y="14" class="st0" width="4" height="4"/>
	<rect id="Rectangle_Copy_5" x="7" class="st0" width="4" height="4"/>
	<rect id="Rectangle_Copy_8" x="7" y="7" class="st0" width="4" height="4"/>
	<rect id="Rectangle_Copy_12" x="7" y="14" class="st0" width="4" height="4"/>
	<rect id="Rectangle_Copy_6" x="14" class="st0" width="4" height="4"/>
	<rect id="Rectangle_Copy_9" x="14" y="7" class="st0" width="4" height="4"/>
	<rect id="Rectangle_Copy_11" x="14" y="14" class="st0" width="4" height="4"/>
</g>
<g>
	<rect id="Rectangle_1_" x="-39.4" class="st1" width="4" height="4"/>
	<rect id="Rectangle_Copy_7_1_" x="-39.4" y="7" class="st1" width="4" height="4"/>
	<rect id="Rectangle_Copy_10_1_" x="-39.4" y="14" class="st1" width="4" height="4"/>
	<rect id="Rectangle_Copy_5_1_" x="-32.4" class="st1" width="4" height="4"/>
	<rect id="Rectangle_Copy_8_1_" x="-32.4" y="7" class="st1" width="4" height="4"/>
	<rect id="Rectangle_Copy_12_1_" x="-32.4" y="14" class="st1" width="4" height="4"/>
	<rect id="Rectangle_Copy_6_1_" x="-25.4" class="st1" width="4" height="4"/>
	<rect id="Rectangle_Copy_9_1_" x="-25.4" y="7" class="st1" width="4" height="4"/>
	<rect id="Rectangle_Copy_11_1_" x="-25.4" y="14" class="st1" width="4" height="4"/>
</g>
</svg>
