<svg xmlns="http://www.w3.org/2000/svg" width="20" height="20.002" viewBox="0 0 20 20.002">
  <path id="Shape" d="M11.161,20H6.782c0-.11.055-12.48,0-13.587h4.379V8.546a2.921,2.921,0,0,1,1.206-1.481,4.72,4.72,0,0,1,2.686-.782,4.518,4.518,0,0,1,3.512,1.5A6.967,6.967,0,0,1,20,12.445V20H15.579V12.969c0-2-.785-3.1-2.211-3.1a2.278,2.278,0,0,0-2.111,1.665,2.832,2.832,0,0,0-.1.966q0,.072,0,.144V20ZM4.4,20H.5V6.414H4.4V20ZM2.354,4.714H2.326A2.263,2.263,0,0,1,0,2.36,2.268,2.268,0,0,1,2.381,0,2.261,2.261,0,0,1,4.732,2.356,2.266,2.266,0,0,1,2.354,4.714Z" transform="translate(0 0)" fill="#fff"/>
</svg>
