<svg xmlns="http://www.w3.org/2000/svg" xmlns:xlink="http://www.w3.org/1999/xlink" width="97.848" height="97.947" viewBox="0 0 97.848 97.947">
  <defs>
    <clipPath id="clip-path">
      <path id="Clip_4" data-name="Clip 4" d="M0,0H97.848V97.947H0Z" transform="translate(0 0.053)" fill="none"/>
    </clipPath>
  </defs>
  <g id="Group_3" data-name="Group 3" transform="translate(0 -0.053)">
    <path id="Fill_1" data-name="Fill 1" d="M5.658,45a5.517,5.517,0,0,1-4-1.677A5.879,5.879,0,0,1,0,39.277V5.329a4.9,4.9,0,0,0,.093-.545,3.077,3.077,0,0,1,.1-.541C.253,4.1.3,3.947.351,3.8A3.3,3.3,0,0,1,.78,2.862,5.694,5.694,0,0,1,4.195.2,5.086,5.086,0,0,1,5.612,0,5.768,5.768,0,0,1,8.488.789L22.537,8.981,36.683,17.27a9.151,9.151,0,0,1,1.658,1.493A6.149,6.149,0,0,1,40,22.7a3.777,3.777,0,0,1-.1,1.085,5.644,5.644,0,0,1-2.634,3.552L22.927,35.724l-.1.1h-.1L8.878,43.915A9.508,9.508,0,0,1,5.658,45ZM5.56,4.836a1.309,1.309,0,0,1-.2.149,1.327,1.327,0,0,0-.194.147.346.346,0,0,1-.1.2h0a.1.1,0,0,0-.1.1V39.079a1.066,1.066,0,0,0,.2.593,1.392,1.392,0,0,0,.585.2,1.846,1.846,0,0,0,.78-.3L20.39,31.48a.336.336,0,0,1,.194-.1l14.147-8.289a1.142,1.142,0,0,0,.487-.889c0-.3-.394-.594-.585-.69l-14.146-8.29h-.1a.3.3,0,0,1-.2-.1L6.341,5.033a.518.518,0,0,0-.145-.1.509.509,0,0,1-.147-.1Z" transform="translate(33 26)" fill="#fff"/>
    <g id="Group_5" data-name="Group 5">
      <path id="Clip_4-2" data-name="Clip 4" d="M0,0H97.848V97.947H0Z" transform="translate(0 0.053)" fill="none"/>
      <g id="Group_5-2" data-name="Group 5" clip-path="url(#clip-path)">
        <path id="Fill_3" data-name="Fill 3" d="M48.924,97.948A48.965,48.965,0,0,1,30.5,94.384,48.919,48.919,0,0,1,3.563,67.444,49.112,49.112,0,0,1,3.612,30.59,49.7,49.7,0,0,1,14.4,14.3,48.46,48.46,0,0,1,30.6,3.563,48.967,48.967,0,0,1,49.022,0,49.083,49.083,0,0,1,94.285,30.6a49.4,49.4,0,0,1,0,36.841,48.916,48.916,0,0,1-26.94,26.941A48.968,48.968,0,0,1,48.924,97.948Zm.1-92.917A44.045,44.045,0,0,0,5.031,49.022,43.784,43.784,0,0,0,8.236,65.557a43.138,43.138,0,0,0,9.716,14.537,43.827,43.827,0,0,0,62.141,0,43.145,43.145,0,0,0,9.715-14.537A44.133,44.133,0,0,0,65.557,8.274,43.573,43.573,0,0,0,49.022,5.031Z" transform="translate(0 0.053)" fill="#fff"/>
      </g>
    </g>
  </g>
</svg>
