<svg xmlns="http://www.w3.org/2000/svg" width="21.001" height="22" viewBox="0 0 21.001 22">
  <path id="Shape" d="M17.128,22h0a3.8,3.8,0,0,1-2.111-.64,3.984,3.984,0,0,1-1.639-4.27L6.87,13.77A3.812,3.812,0,0,1,2.6,15.014,3.975,3.975,0,0,1,2.484,7.6a3.782,3.782,0,0,1,1.382-.261A3.833,3.833,0,0,1,6.787,8.7l6.629-3.659A3.963,3.963,0,0,1,15.668.294,3.778,3.778,0,0,1,17.13,0a3.855,3.855,0,0,1,3.4,2.067,3.988,3.988,0,0,1-1.2,5.125,3.792,3.792,0,0,1-2.2.7,3.834,3.834,0,0,1-2.928-1.367L7.577,10.184a3.928,3.928,0,0,1,.033,2.058l6.508,3.32A3.821,3.821,0,0,1,17.123,14.1v.012h0a3.875,3.875,0,0,1,3.656,2.66,4,4,0,0,1-1.277,4.4A3.835,3.835,0,0,1,17.128,22Zm0-6.212a2.255,2.255,0,1,0,2.21,2.255A2.235,2.235,0,0,0,17.123,15.788ZM3.865,9.023a2.255,2.255,0,0,0,0,4.51,2.255,2.255,0,0,0,0-4.51ZM17.123,1.7a2.235,2.235,0,0,0-2.21,2.255,2.21,2.21,0,1,0,4.419,0A2.235,2.235,0,0,0,17.123,1.7Z" transform="translate(0 0)"/>
</svg>
