<svg id="Group_92" data-name="Group 92" xmlns="http://www.w3.org/2000/svg" xmlns:xlink="http://www.w3.org/1999/xlink" width="96" height="94" viewBox="0 0 96 94">
  <defs>
    <clipPath id="clip-path">
      <path id="Clip_4" data-name="Clip 4" d="M21.411,0h-.039A19.364,19.364,0,0,0,1.786,19.134h0A193.1,193.1,0,0,1,0,43.533H0a64.125,64.125,0,0,0,21.411,6.972h0a64.033,64.033,0,0,0,21.4-6.972h0a193.864,193.864,0,0,1-1.778-24.4h0A18.913,18.913,0,0,0,35.285,5.591h0A19.821,19.821,0,0,0,21.449,0h-.039Z" transform="translate(0.098 0.25)" fill="none"/>
    </clipPath>
    <clipPath id="clip-path-2">
      <path id="Clip_7" data-name="Clip 7" d="M21.449,0h-.078A19.364,19.364,0,0,0,1.786,19.134h0A193.1,193.1,0,0,1,0,43.533H0a64.125,64.125,0,0,0,21.411,6.972h0a64.033,64.033,0,0,0,21.4-6.972h0a193.864,193.864,0,0,1-1.778-24.4h0A18.913,18.913,0,0,0,35.285,5.591h0A19.822,19.822,0,0,0,21.45,0h0Z" transform="translate(0.098 0.25)" fill="none"/>
    </clipPath>
    <clipPath id="clip-path-3">
      <path id="Clip_12" data-name="Clip 12" d="M18.26,6.588a3.623,3.623,0,0,1-2.34,3.3h0L3.628,14.558A5.432,5.432,0,0,0,.165,19.511h0L0,26.655a1.838,1.838,0,0,0,.487,1.3h0a1.773,1.773,0,0,0,1.252.568h0L1.366,44.793,45.559,44.4h0s1.995.663,2.02-.333h0l.328-14.455c.981.018.747-.883.772-1.881h0l.164-7.144c.056-2.223-.182-4.145-2.192-5.017h0L34.585,10.327a3.615,3.615,0,0,1-2.153-3.405h0L32.581.333,18.377,0Z" transform="translate(0.057 0.061)" fill="none"/>
    </clipPath>
    <clipPath id="clip-path-4">
      <path id="Clip_18" data-name="Clip 18" d="M9.05.035a1.048,1.048,0,0,0-.683.58h0A9.216,9.216,0,0,1,1.483,6.3h0A1.782,1.782,0,0,0,0,8.067H0v5.508a16.19,16.19,0,0,0,4.687,11.4h0A15.929,15.929,0,0,0,16,29.7h0A16.059,16.059,0,0,0,31.938,13.575h0C31.938,1.638,17.46,5.927,9.928.2h0A1.04,1.04,0,0,0,9.317,0h0A1.041,1.041,0,0,0,9.05.035Z" transform="translate(0.009 0.186)" fill="none"/>
    </clipPath>
    <clipPath id="clip-path-5">
      <path id="Clip_21" data-name="Clip 21" d="M9.05.035a1.048,1.048,0,0,0-.683.58h0A9.216,9.216,0,0,1,1.483,6.3h0A1.782,1.782,0,0,0,0,8.067H0v5.508a16.19,16.19,0,0,0,4.687,11.4h0A15.929,15.929,0,0,0,16,29.7h0A16.059,16.059,0,0,0,31.938,13.575h0C31.938,1.638,17.46,5.927,9.928.2h0A1.041,1.041,0,0,0,9.317,0h0A1.04,1.04,0,0,0,9.05.035Z" transform="translate(0.009 0.186)" fill="none"/>
    </clipPath>
    <clipPath id="clip-path-6">
      <path id="Clip_26" data-name="Clip 26" d="M24.475,11.771A14.156,14.156,0,0,1,10.75,0h0L3.294,3.109A5.484,5.484,0,0,0,0,8.2H0V33.684H48.95V8.2a5.494,5.494,0,0,0-3.279-5.088h0L38.2,0A14.156,14.156,0,0,1,24.475,11.771Z" transform="translate(0.05 0.208)" fill="none"/>
    </clipPath>
    <clipPath id="clip-path-7">
      <path id="Clip_32" data-name="Clip 32" d="M0,0V21.06a1.782,1.782,0,0,0,1.8,1.757H10.82V0Z" transform="translate(0.02 0.069)" fill="none"/>
    </clipPath>
    <clipPath id="clip-path-8">
      <path id="Clip_36" data-name="Clip 36" d="M0,0H10.82V22.817H0Z" transform="translate(0.149 0.07)" fill="none"/>
    </clipPath>
    <clipPath id="clip-path-9">
      <path id="Clip_41" data-name="Clip 41" d="M19.359,0,3.872,4.325A5.393,5.393,0,0,0,0,9.544H0V25.25a1.786,1.786,0,0,0,1.765,1.806h8.774v19.8H42.288V22.969h10.57V9.5a5.391,5.391,0,0,0-3.895-5.2h0L33.468,0Z" transform="translate(0.085 0.004)" fill="none"/>
    </clipPath>
    <clipPath id="clip-path-10">
      <path id="Clip_47" data-name="Clip 47" d="M0,0V6.329a9.018,9.018,0,0,0,4.413,8.026h0a8.965,8.965,0,0,0,9.14,0h0a9.017,9.017,0,0,0,4.412-8.026h0V0Z" transform="translate(0.008 0.232)" fill="none"/>
    </clipPath>
    <clipPath id="clip-path-11">
      <path id="Clip_53" data-name="Clip 53" d="M3.6,0V10.621A3.566,3.566,0,0,0,0,14.156H0a3.567,3.567,0,0,0,3.6,3.535h0A16.07,16.07,0,0,0,19.807,33.619h0A16.07,16.07,0,0,0,36.016,17.691h0a3.567,3.567,0,0,0,3.6-3.535h0a3.566,3.566,0,0,0-3.6-3.535h0V0Z" transform="translate(0.184 0.183)" fill="none"/>
    </clipPath>
    <clipPath id="clip-path-12">
      <path id="Clip_59" data-name="Clip 59" d="M26.749,0H12.486A12.466,12.466,0,0,0,0,12.445H0v9.368a3.544,3.544,0,0,1,1.778-.5h0a3.152,3.152,0,0,1,.674.07h0a3.3,3.3,0,0,0,3.916-2.342h0l.439-1.749a1.784,1.784,0,0,1,1.668-1.288h0c3.313-.086,12.078-.523,18.016-2.678h0a1.784,1.784,0,0,1,1.494.138h0a1.772,1.772,0,0,1,.856,1.228h0l.674,3.989a4.622,4.622,0,0,0,.329.96h0a2.994,2.994,0,0,0,3.486,1.741h0a3.789,3.789,0,0,1,.6-.046h0a3.542,3.542,0,0,1,1.786.492h0V10.665A7.077,7.077,0,0,0,32.06,4.5h0A5.338,5.338,0,0,0,26.783,0h-.034Z" transform="translate(0.163 0.131)" fill="none"/>
    </clipPath>
    <clipPath id="clip-path-14">
      <path id="Clip_67" data-name="Clip 67" d="M10.907,0V4.026A1.766,1.766,0,0,1,9.669,5.7h0L3.729,7.624A5.314,5.314,0,0,0,0,12.651H0v3.242a1.743,1.743,0,0,0,.533,1.25h0a1.848,1.848,0,0,0,1.287.518H30.908a1.848,1.848,0,0,0,1.287-.518h0a1.744,1.744,0,0,0,.533-1.25h0V12.651A5.314,5.314,0,0,0,29,7.624h0L23.059,5.7a1.766,1.766,0,0,1-1.238-1.675h0V0Z" transform="translate(0.095 0.225)" fill="none"/>
    </clipPath>
    <clipPath id="clip-path-15">
      <path id="Clip_73" data-name="Clip 73" d="M16.36,0A16.274,16.274,0,0,0,0,16.187H0v5.4H32.736v-5.4a16.1,16.1,0,0,0-4.8-11.452h0A16.449,16.449,0,0,0,16.377,0H16.36Z" transform="translate(0.095 0.165)" fill="none"/>
    </clipPath>
    <clipPath id="clip-path-16">
      <path id="Clip_76" data-name="Clip 76" d="M16.36,0A16.274,16.274,0,0,0,0,16.187H0v5.4H32.736v-5.4a16.1,16.1,0,0,0-4.8-11.452h0A16.447,16.447,0,0,0,16.377,0H16.36Z" transform="translate(0.095 0.165)" fill="none"/>
    </clipPath>
    <clipPath id="clip-path-17">
      <path id="Clip_81" data-name="Clip 81" d="M23.7.372A53.251,53.251,0,0,1,3.47,5.116h0A3.621,3.621,0,0,0,0,8.718H0a3.621,3.621,0,0,0,3.47,3.6h0v1.273A13.018,13.018,0,0,0,15.806,26.718h0a12.8,12.8,0,0,0,9.253-3.551h0a12.547,12.547,0,0,0,3.865-9.052h0V12.32a3.649,3.649,0,0,0,3.294-1.75h0a3.576,3.576,0,0,0,0-3.7h0a3.649,3.649,0,0,0-3.294-1.75h0V3.535A3.576,3.576,0,0,0,27.2.526h0A3.642,3.642,0,0,0,25.308,0h0A3.643,3.643,0,0,0,23.7.372Z" transform="translate(0.257 0.208)" fill="none"/>
    </clipPath>
    <clipPath id="clip-path-18">
      <path id="Clip_84" data-name="Clip 84" d="M23.7.372A53.251,53.251,0,0,1,3.47,5.116h0A3.621,3.621,0,0,0,0,8.718H0a3.621,3.621,0,0,0,3.47,3.6h0v1.273A13.018,13.018,0,0,0,15.806,26.718h0a12.8,12.8,0,0,0,9.253-3.551h0a12.547,12.547,0,0,0,3.865-9.052h0V12.32a3.649,3.649,0,0,0,3.294-1.75h0a3.576,3.576,0,0,0,0-3.7h0a3.649,3.649,0,0,0-3.294-1.75h0V3.535A3.576,3.576,0,0,0,27.2.526h0A3.642,3.642,0,0,0,25.308,0h0a3.641,3.641,0,0,0-1.6.372Z" transform="translate(0.257 0.208)" fill="none"/>
    </clipPath>
    <clipPath id="clip-path-19">
      <path id="Clip_89" data-name="Clip 89" d="M16.36,5.544A10.994,10.994,0,0,1,6.691,0h0L3.729.935A5.185,5.185,0,0,0,0,5.822H0V8.974a1.772,1.772,0,0,0,1.821,1.719H30.908a1.772,1.772,0,0,0,1.821-1.719h0V5.822A5.186,5.186,0,0,0,29,.943h0L26.029,0A11,11,0,0,1,16.36,5.544Z" transform="translate(0.095 0.188)" fill="none"/>
    </clipPath>
  </defs>
  <path id="Fill_1" data-name="Fill 1" d="M21.5,0h0A19.855,19.855,0,0,1,35.439,5.645a19.151,19.151,0,0,1,5.775,13.676A196.757,196.757,0,0,0,43,43.959,64.07,64.07,0,0,1,21.5,51,64.167,64.167,0,0,1,0,43.959,195.979,195.979,0,0,0,1.794,19.321,19.5,19.5,0,0,1,21.465,0Z" transform="translate(50 7)" fill="#f15954"/>
  <g id="Group_5" data-name="Group 5" transform="translate(50 7)">
    <path id="Clip_4-2" data-name="Clip 4" d="M21.411,0h-.039A19.364,19.364,0,0,0,1.786,19.134h0A193.1,193.1,0,0,1,0,43.533H0a64.125,64.125,0,0,0,21.411,6.972h0a64.033,64.033,0,0,0,21.4-6.972h0a193.864,193.864,0,0,1-1.778-24.4h0A18.913,18.913,0,0,0,35.285,5.591h0A19.821,19.821,0,0,0,21.449,0h-.039Z" transform="translate(0.098 0.25)" fill="none"/>
    <g id="Group_5-2" data-name="Group 5" clip-path="url(#clip-path)">
      <path id="Fill_3" data-name="Fill 3" d="M0,129.91H132.627V0H0Z" transform="translate(-68.904 -25.373)" fill="#f15954"/>
    </g>
  </g>
  <g id="Group_8" data-name="Group 8" transform="translate(50 7)">
    <path id="Clip_7-2" data-name="Clip 7" d="M21.449,0h-.078A19.364,19.364,0,0,0,1.786,19.134h0A193.1,193.1,0,0,1,0,43.533H0a64.125,64.125,0,0,0,21.411,6.972h0a64.033,64.033,0,0,0,21.4-6.972h0a193.864,193.864,0,0,1-1.778-24.4h0A18.913,18.913,0,0,0,35.285,5.591h0A19.822,19.822,0,0,0,21.45,0h0Z" transform="translate(0.098 0.25)" fill="none"/>
    <g id="Group_8-2" data-name="Group 8" clip-path="url(#clip-path-2)">
      <path id="Fill_6" data-name="Fill 6" d="M0,60.655H53.175V0H0Z" transform="translate(-5.083 -4.824)" fill="#f15954"/>
    </g>
  </g>
  <path id="Fill_9" data-name="Fill 9" d="M33.983,10.375a3.639,3.639,0,0,1-2.115-3.421L32.014.335,18.057,0l-.115,6.619a3.636,3.636,0,0,1-2.3,3.317L3.565,14.625A5.454,5.454,0,0,0,.162,19.6L0,26.778a1.869,1.869,0,0,0,.479,1.311,1.726,1.726,0,0,0,1.231.571L1.342,45l43.424-.391s1.96.666,1.985-.335l.322-14.522c.964.018.734-.888.759-1.89l.161-7.177c.055-2.233-.178-4.164-2.154-5.04Z" transform="translate(47 49)" fill="#c4b097"/>
  <g id="Group_14" data-name="Group 14" transform="translate(47 49)">
    <path id="Clip_12-2" data-name="Clip 12" d="M18.26,6.588a3.623,3.623,0,0,1-2.34,3.3h0L3.628,14.558A5.432,5.432,0,0,0,.165,19.511h0L0,26.655a1.838,1.838,0,0,0,.487,1.3h0a1.773,1.773,0,0,0,1.252.568h0L1.366,44.793,45.559,44.4h0s1.995.663,2.02-.333h0l.328-14.455c.981.018.747-.883.772-1.881h0l.164-7.144c.056-2.223-.182-4.145-2.192-5.017h0L34.585,10.327a3.615,3.615,0,0,1-2.153-3.405h0L32.581.333,18.377,0Z" transform="translate(0.057 0.061)" fill="none"/>
    <g id="Group_14-2" data-name="Group 14" clip-path="url(#clip-path-3)">
      <path id="Fill_11" data-name="Fill 11" d="M0,134.737H132.042V0H0Z" transform="translate(-64.989 -69.737)" fill="#c4b097"/>
      <path id="Fill_13" data-name="Fill 13" d="M0,55.32H59.166V0H0Z" transform="translate(-5.101 -5.203)" fill="#c4b097"/>
    </g>
  </g>
  <path id="Fill_15" data-name="Fill 15" d="M16.031,30h0A15.893,15.893,0,0,1,4.7,25.232,16.423,16.423,0,0,1,0,13.713V8.149A1.8,1.8,0,0,1,1.486,6.36,9.258,9.258,0,0,0,8.383.622,1.052,1.052,0,0,1,9.067.035,1.035,1.035,0,0,1,9.947.2C17.494,5.987,32,1.655,32,13.713A16.158,16.158,0,0,1,16.031,30" transform="translate(55 24)" fill="#b29f84"/>
  <g id="Group_19" data-name="Group 19" transform="translate(55 24)">
    <path id="Clip_18-2" data-name="Clip 18" d="M9.05.035a1.048,1.048,0,0,0-.683.58h0A9.216,9.216,0,0,1,1.483,6.3h0A1.782,1.782,0,0,0,0,8.067H0v5.508a16.19,16.19,0,0,0,4.687,11.4h0A15.929,15.929,0,0,0,16,29.7h0A16.059,16.059,0,0,0,31.938,13.575h0C31.938,1.638,17.46,5.927,9.928.2h0A1.04,1.04,0,0,0,9.317,0h0A1.041,1.041,0,0,0,9.05.035Z" transform="translate(0.009 0.186)" fill="none"/>
    <g id="Group_19-2" data-name="Group 19" clip-path="url(#clip-path-4)">
      <path id="Fill_17" data-name="Fill 17" d="M0,133.565H132.129V0H0Z" transform="translate(-74.065 -43.043)" fill="#b29f84"/>
    </g>
  </g>
  <g id="Group_22" data-name="Group 22" transform="translate(55 24)">
    <path id="Clip_21-2" data-name="Clip 21" d="M9.05.035a1.048,1.048,0,0,0-.683.58h0A9.216,9.216,0,0,1,1.483,6.3h0A1.782,1.782,0,0,0,0,8.067H0v5.508a16.19,16.19,0,0,0,4.687,11.4h0A15.929,15.929,0,0,0,16,29.7h0A16.059,16.059,0,0,0,31.938,13.575h0C31.938,1.638,17.46,5.927,9.928.2h0A1.041,1.041,0,0,0,9.317,0h0A1.04,1.04,0,0,0,9.05.035Z" transform="translate(0.009 0.186)" fill="none"/>
    <g id="Group_22-2" data-name="Group 22" clip-path="url(#clip-path-5)">
      <path id="Fill_20" data-name="Fill 20" d="M0,40.133H42.26V0H0Z" transform="translate(-5.153 -5.031)" fill="#b29f84"/>
    </g>
  </g>
  <path id="Fill_23" data-name="Fill 23" d="M45.718,3.046,38.239,0A14.082,14.082,0,0,1,24.5,11.532,14.082,14.082,0,0,1,10.761,0L3.3,3.046A5.37,5.37,0,0,0,0,8.03V33H49V8.03a5.378,5.378,0,0,0-3.282-4.984" transform="translate(47 61)" fill="#f6b6af"/>
  <g id="Group_28" data-name="Group 28" transform="translate(47 60)">
    <path id="Clip_26-2" data-name="Clip 26" d="M24.475,11.771A14.156,14.156,0,0,1,10.75,0h0L3.294,3.109A5.484,5.484,0,0,0,0,8.2H0V33.684H48.95V8.2a5.494,5.494,0,0,0-3.279-5.088h0L38.2,0A14.156,14.156,0,0,1,24.475,11.771Z" transform="translate(0.05 0.208)" fill="none"/>
    <g id="Group_28-2" data-name="Group 28" clip-path="url(#clip-path-6)">
      <path id="Fill_25" data-name="Fill 25" d="M0,136H129.99V0H0Z" transform="translate(-63.725 -82.078)" fill="#f6b6af"/>
      <path id="Fill_27" data-name="Fill 27" d="M0,44.309H59.106V0H0Z" transform="translate(-5.028 -5.105)" fill="#f6b6af"/>
    </g>
  </g>
  <path id="Fill_29" data-name="Fill 29" d="M11,23H1.828A1.8,1.8,0,0,1,0,21.228V0H11Z" transform="translate(2 71)" fill="#b29f84"/>
  <g id="Group_34" data-name="Group 34" transform="translate(2 71)">
    <path id="Clip_32-2" data-name="Clip 32" d="M0,0V21.06a1.782,1.782,0,0,0,1.8,1.757H10.82V0Z" transform="translate(0.02 0.069)" fill="none"/>
    <g id="Group_34-2" data-name="Group 34" clip-path="url(#clip-path-7)">
      <path id="Fill_31" data-name="Fill 31" d="M0,130.844H134.1V0H0Z" transform="translate(-20.69 -88.933)" fill="#b29f84"/>
      <path id="Fill_33" data-name="Fill 33" d="M0,33.04H21.3V0H0Z" transform="translate(-5.218 -5.042)" fill="#b29f84"/>
    </g>
  </g>
  <g id="Group_37" data-name="Group 37" transform="translate(41 71)">
    <path id="Clip_36-2" data-name="Clip 36" d="M0,0H10.82V22.817H0Z" transform="translate(0.149 0.07)" fill="none"/>
    <g id="Group_37-2" data-name="Group 37" clip-path="url(#clip-path-8)">
      <path id="Fill_35" data-name="Fill 35" d="M0,33.04H21.3V0H0Z" transform="translate(-5.089 -5.042)" fill="#ffbe72"/>
    </g>
  </g>
  <path id="Fill_38" data-name="Fill 38" d="M49.095,4.23,33.558,0H19.411L3.882,4.246A5.309,5.309,0,0,0,0,9.369V24.788a1.771,1.771,0,0,0,1.77,1.773h8.8V46H42.4V22.549H53V9.33a5.309,5.309,0,0,0-3.905-5.1" transform="translate(0 48)" fill="#92addf"/>
  <g id="Group_43" data-name="Group 43" transform="translate(0 47)">
    <path id="Clip_41-2" data-name="Clip 41" d="M19.359,0,3.872,4.325A5.393,5.393,0,0,0,0,9.544H0V25.25a1.786,1.786,0,0,0,1.765,1.806h8.774v19.8H42.288V22.969h10.57V9.5a5.391,5.391,0,0,0-3.895-5.2h0L33.468,0Z" transform="translate(0.085 0.004)" fill="none"/>
    <g id="Group_43-2" data-name="Group 43" clip-path="url(#clip-path-9)">
      <path id="Fill_40" data-name="Fill 40" d="M0,134.436H131.092V0H0Z" transform="translate(-18.435 -68.006)" fill="#92addf"/>
      <path id="Fill_42" data-name="Fill 42" d="M0,57.358H63.1V0H0Z" transform="translate(-5.036 -5.247)" fill="#92addf"/>
    </g>
  </g>
  <path id="Fill_44" data-name="Fill 44" d="M0,0V6.488a9.3,9.3,0,0,0,4.419,8.228,8.8,8.8,0,0,0,9.153,0A9.3,9.3,0,0,0,18,6.488V0Z" transform="translate(18 41)" fill="#c4b097"/>
  <g id="Group_49" data-name="Group 49" transform="translate(18 41)">
    <path id="Clip_47-2" data-name="Clip 47" d="M0,0V6.329a9.018,9.018,0,0,0,4.413,8.026h0a8.965,8.965,0,0,0,9.14,0h0a9.017,9.017,0,0,0,4.412-8.026h0V0Z" transform="translate(0.008 0.232)" fill="none"/>
    <g id="Group_49-2" data-name="Group 49" clip-path="url(#clip-path-10)">
      <path id="Fill_46" data-name="Fill 46" d="M0,134.3H133.565V0H0Z" transform="translate(-36.783 -61.377)" fill="#c4b097"/>
      <path id="Fill_48" data-name="Fill 48" d="M0,26.1H28.408V0H0Z" transform="translate(-5.209 -5.014)" fill="#c4b097"/>
    </g>
  </g>
  <path id="Fill_50" data-name="Fill 50" d="M36.367,10.741V0H3.633V10.741a3.576,3.576,0,1,0,0,7.15A16.239,16.239,0,0,0,20,34,16.239,16.239,0,0,0,36.367,17.892a3.576,3.576,0,1,0,0-7.15" transform="translate(7 11)" fill="#b29f84"/>
  <g id="Group_55" data-name="Group 55" transform="translate(7 11)">
    <path id="Clip_53-2" data-name="Clip 53" d="M3.6,0V10.621A3.566,3.566,0,0,0,0,14.156H0a3.567,3.567,0,0,0,3.6,3.535h0A16.07,16.07,0,0,0,19.807,33.619h0A16.07,16.07,0,0,0,36.016,17.691h0a3.567,3.567,0,0,0,3.6-3.535h0a3.566,3.566,0,0,0-3.6-3.535h0V0Z" transform="translate(0.184 0.183)" fill="none"/>
    <g id="Group_55-2" data-name="Group 55" clip-path="url(#clip-path-11)">
      <path id="Fill_52" data-name="Fill 52" d="M0,131.879H133.856V0H0Z" transform="translate(-25.882 -29.364)" fill="#b29f84"/>
      <path id="Fill_54" data-name="Fill 54" d="M0,43.922H50.071V0H0Z" transform="translate(-5.045 -4.968)" fill="#b29f84"/>
    </g>
  </g>
  <path id="Fill_56" data-name="Fill 56" d="M30.085,19.8A3.02,3.02,0,0,0,33.6,21.552a3.758,3.758,0,0,1,.6-.047A3.572,3.572,0,0,1,36,22V10.748a7.133,7.133,0,0,0-3.68-6.216A5.38,5.38,0,0,0,26.966,0H12.587A12.565,12.565,0,0,0,0,12.542v9.442a3.571,3.571,0,0,1,1.793-.5,3.175,3.175,0,0,1,.679.071,3.325,3.325,0,0,0,3.948-2.36l.442-1.763a1.8,1.8,0,0,1,1.682-1.3c3.34-.087,12.176-.527,18.162-2.7a1.793,1.793,0,0,1,2.369,1.377l.679,4.021a4.683,4.683,0,0,0,.332.968" transform="translate(9)" fill="#1b2f54"/>
  <g id="Group_60" data-name="Group 60" transform="translate(9)">
    <path id="Clip_59-2" data-name="Clip 59" d="M26.749,0H12.486A12.466,12.466,0,0,0,0,12.445H0v9.368a3.544,3.544,0,0,1,1.778-.5h0a3.152,3.152,0,0,1,.674.07h0a3.3,3.3,0,0,0,3.916-2.342h0l.439-1.749a1.784,1.784,0,0,1,1.668-1.288h0c3.313-.086,12.078-.523,18.016-2.678h0a1.784,1.784,0,0,1,1.494.138h0a1.772,1.772,0,0,1,.856,1.228h0l.674,3.989a4.622,4.622,0,0,0,.329.96h0a2.994,2.994,0,0,0,3.486,1.741h0a3.789,3.789,0,0,1,.6-.046h0a3.542,3.542,0,0,1,1.786.492h0V10.665A7.077,7.077,0,0,0,32.06,4.5h0A5.338,5.338,0,0,0,26.783,0h-.034Z" transform="translate(0.163 0.131)" fill="none"/>
    <g id="Group_60-2" data-name="Group 60" clip-path="url(#clip-path-12)">
      <path id="Fill_58" data-name="Fill 58" d="M0,132.518H132.6V0H0Z" transform="translate(-27.453 -18.894)" fill="#1b2f54"/>
    </g>
  </g>
  <g id="Group_63" data-name="Group 63" transform="translate(9)">
    <path id="Clip_62-2" data-name="Clip 62" d="M26.749,0H12.486A12.466,12.466,0,0,0,0,12.445H0v9.368a3.544,3.544,0,0,1,1.778-.5h0a3.152,3.152,0,0,1,.674.07h0a3.3,3.3,0,0,0,3.916-2.342h0l.439-1.749a1.784,1.784,0,0,1,1.668-1.288h0c3.313-.086,12.078-.523,18.016-2.678h0a1.784,1.784,0,0,1,1.494.138h0a1.772,1.772,0,0,1,.856,1.228h0l.674,3.989a4.622,4.622,0,0,0,.329.96h0a2.994,2.994,0,0,0,3.486,1.741h0a3.789,3.789,0,0,1,.6-.046h0a3.542,3.542,0,0,1,1.786.492h0V10.665A7.077,7.077,0,0,0,32.06,4.5h0A5.338,5.338,0,0,0,26.783,0h-.034Z" transform="translate(0.163 0.131)" fill="none"/>
    <g id="Group_63-2" data-name="Group 63" clip-path="url(#clip-path-12)">
      <path id="Fill_61" data-name="Fill 61" d="M0,32.182H46.07V0H0Z" transform="translate(-5.017 -5.045)" fill="#1b2f54"/>
    </g>
  </g>
  <path id="Fill_64" data-name="Fill 64" d="M28.354,7.771,22.546,5.81A1.793,1.793,0,0,1,21.336,4.1V0H10.664V4.1A1.793,1.793,0,0,1,9.454,5.81L3.646,7.771A5.4,5.4,0,0,0,0,12.893v3.3a1.815,1.815,0,0,0,.521,1.275A1.769,1.769,0,0,0,1.78,18H30.22a1.768,1.768,0,0,0,1.258-.528A1.815,1.815,0,0,0,32,16.2v-3.3a5.394,5.394,0,0,0-3.646-5.123" transform="translate(32 76)" fill="#c4b097"/>
  <g id="Group_69" data-name="Group 69" transform="translate(32 76)">
    <path id="Clip_67-2" data-name="Clip 67" d="M10.907,0V4.026A1.766,1.766,0,0,1,9.669,5.7h0L3.729,7.624A5.314,5.314,0,0,0,0,12.651H0v3.242a1.743,1.743,0,0,0,.533,1.25h0a1.848,1.848,0,0,0,1.287.518H30.908a1.848,1.848,0,0,0,1.287-.518h0a1.744,1.744,0,0,0,.533-1.25h0V12.651A5.314,5.314,0,0,0,29,7.624h0L23.059,5.7a1.766,1.766,0,0,1-1.238-1.675h0V0Z" transform="translate(0.095 0.225)" fill="none"/>
    <g id="Group_69-2" data-name="Group 69" clip-path="url(#clip-path-14)">
      <path id="Fill_66" data-name="Fill 66" d="M0,131.657H135.168V0H0Z" transform="translate(-52.272 -94.629)" fill="#c4b097"/>
      <path id="Fill_68" data-name="Fill 68" d="M0,27.947H43.288V0H0Z" transform="translate(-5.185 -4.918)" fill="#c4b097"/>
    </g>
  </g>
  <path id="Fill_70" data-name="Fill 70" d="M15.992,0h0A16.252,16.252,0,0,0,0,16.5V22H32V16.5A16.769,16.769,0,0,0,27.31,4.827,15.744,15.744,0,0,0,15.992,0" transform="translate(32 38)" fill="#1b2f54"/>
  <g id="Group_74" data-name="Group 74" transform="translate(32 38)">
    <path id="Clip_73-2" data-name="Clip 73" d="M16.36,0A16.274,16.274,0,0,0,0,16.187H0v5.4H32.736v-5.4a16.1,16.1,0,0,0-4.8-11.452h0A16.449,16.449,0,0,0,16.377,0H16.36Z" transform="translate(0.095 0.165)" fill="none"/>
    <g id="Group_74-2" data-name="Group 74" clip-path="url(#clip-path-15)">
      <path id="Fill_72" data-name="Fill 72" d="M0,134.1H135.168V0H0Z" transform="translate(-52.272 -58.667)" fill="#1b2f54"/>
    </g>
  </g>
  <g id="Group_77" data-name="Group 77" transform="translate(32 38)">
    <path id="Clip_76-2" data-name="Clip 76" d="M16.36,0A16.274,16.274,0,0,0,0,16.187H0v5.4H32.736v-5.4a16.1,16.1,0,0,0-4.8-11.452h0A16.447,16.447,0,0,0,16.377,0H16.36Z" transform="translate(0.095 0.165)" fill="none"/>
    <g id="Group_77-2" data-name="Group 77" clip-path="url(#clip-path-16)">
      <path id="Fill_75" data-name="Fill 75" d="M0,32.059H43.3V0H0Z" transform="translate(-5.185 -5.073)" fill="#1b2f54"/>
    </g>
  </g>
  <path id="Fill_78" data-name="Fill 78" d="M28.274,5.169v-1.6A3.637,3.637,0,0,0,26.584.532,3.465,3.465,0,0,0,23.17.376,50.663,50.663,0,0,1,3.392,5.169a3.648,3.648,0,0,0,0,7.278v1.286c0,6.966,5.253,13.045,12.059,13.261A12.283,12.283,0,0,0,24.5,23.406a12.882,12.882,0,0,0,3.778-9.145V12.447a3.538,3.538,0,0,0,3.22-1.768,3.715,3.715,0,0,0,0-3.741,3.539,3.539,0,0,0-3.22-1.769" transform="translate(32 51)" fill="#b29f84"/>
  <g id="Group_82" data-name="Group 82" transform="translate(32 51)">
    <path id="Clip_81-2" data-name="Clip 81" d="M23.7.372A53.251,53.251,0,0,1,3.47,5.116h0A3.621,3.621,0,0,0,0,8.718H0a3.621,3.621,0,0,0,3.47,3.6h0v1.273A13.018,13.018,0,0,0,15.806,26.718h0a12.8,12.8,0,0,0,9.253-3.551h0a12.547,12.547,0,0,0,3.865-9.052h0V12.32a3.649,3.649,0,0,0,3.294-1.75h0a3.576,3.576,0,0,0,0-3.7h0a3.649,3.649,0,0,0-3.294-1.75h0V3.535A3.576,3.576,0,0,0,27.2.526h0A3.642,3.642,0,0,0,25.308,0h0A3.643,3.643,0,0,0,23.7.372Z" transform="translate(0.257 0.208)" fill="none"/>
    <g id="Group_82-2" data-name="Group 82" clip-path="url(#clip-path-17)">
      <path id="Fill_80" data-name="Fill 80" d="M0,134.214H135.168V0H0Z" transform="translate(-52.272 -71.563)" fill="#b29f84"/>
    </g>
  </g>
  <g id="Group_85" data-name="Group 85" transform="translate(32 51)">
    <path id="Clip_84-2" data-name="Clip 84" d="M23.7.372A53.251,53.251,0,0,1,3.47,5.116h0A3.621,3.621,0,0,0,0,8.718H0a3.621,3.621,0,0,0,3.47,3.6h0v1.273A13.018,13.018,0,0,0,15.806,26.718h0a12.8,12.8,0,0,0,9.253-3.551h0a12.547,12.547,0,0,0,3.865-9.052h0V12.32a3.649,3.649,0,0,0,3.294-1.75h0a3.576,3.576,0,0,0,0-3.7h0a3.649,3.649,0,0,0-3.294-1.75h0V3.535A3.576,3.576,0,0,0,27.2.526h0A3.642,3.642,0,0,0,25.308,0h0a3.641,3.641,0,0,0-1.6.372Z" transform="translate(0.257 0.208)" fill="none"/>
    <g id="Group_85-2" data-name="Group 85" clip-path="url(#clip-path-18)">
      <path id="Fill_83" data-name="Fill 83" d="M0,37.21H43.3V0H0Z" transform="translate(-5.023 -5.034)" fill="#b29f84"/>
    </g>
  </g>
  <path id="Fill_86" data-name="Fill 86" d="M25.45,0A10.665,10.665,0,0,1,16,5.7,10.664,10.664,0,0,1,6.542,0l-2.9.962A5.3,5.3,0,0,0,0,5.989V9.232A1.774,1.774,0,0,0,1.78,11H30.22A1.774,1.774,0,0,0,32,9.232V5.989A5.3,5.3,0,0,0,28.354.97Z" transform="translate(32 83)" fill="#66d9c1"/>
  <g id="Group_91" data-name="Group 91" transform="translate(32 83)">
    <path id="Clip_89-2" data-name="Clip 89" d="M16.36,5.544A10.994,10.994,0,0,1,6.691,0h0L3.729.935A5.185,5.185,0,0,0,0,5.822H0V8.974a1.772,1.772,0,0,0,1.821,1.719H30.908a1.772,1.772,0,0,0,1.821-1.719h0V5.822A5.186,5.186,0,0,0,29,.943h0L26.029,0A11,11,0,0,1,16.36,5.544Z" transform="translate(0.095 0.188)" fill="none"/>
    <g id="Group_91-2" data-name="Group 91" clip-path="url(#clip-path-19)">
      <path id="Fill_88" data-name="Fill 88" d="M0,128H135.168V0H0Z" transform="translate(-52.272 -98.5)" fill="#66d9c1"/>
      <path id="Fill_90" data-name="Fill 90" d="M0,20.693H43.288V0H0Z" transform="translate(-5.185 -4.812)" fill="#66d9c1"/>
    </g>
  </g>
</svg>
