<svg xmlns="http://www.w3.org/2000/svg" xmlns:xlink="http://www.w3.org/1999/xlink" width="93.011" height="92.963" viewBox="0 0 93.011 92.963">
  <defs>
    <clipPath id="clip-path">
      <path id="Clip_6" data-name="Clip 6" d="M0,0H15.736V31.37H0Z" transform="translate(0 0.131)" fill="none"/>
    </clipPath>
    <clipPath id="clip-path-2">
      <path id="Clip_11" data-name="Clip 11" d="M0,0H59.3V28.554H0Z" transform="translate(0.073 0.047)" fill="none"/>
    </clipPath>
    <clipPath id="clip-path-3">
      <path id="Clip_14" data-name="Clip 14" d="M0,0H39.4V28.554H0Z" transform="translate(0.183 0.047)" fill="none"/>
    </clipPath>
  </defs>
  <g id="Group_24" data-name="Group 24" transform="translate(0 -0.542)">
    <path id="Fill_1" data-name="Fill 1" d="M11.874,31.663A11.959,11.959,0,0,1,0,19.647c0-3.446,2.533-8.33,4.657-11.82A57.867,57.867,0,0,1,7.941,2.972C9.51.917,10.45,0,11.874,0s2.364.917,3.933,2.972A57.881,57.881,0,0,1,19.09,7.827c2.125,3.49,4.657,8.374,4.657,11.82A11.959,11.959,0,0,1,11.874,31.663" transform="translate(35.621 30.179)" fill="#f15954"/>
    <path id="Fill_3" data-name="Fill 3" d="M59.186,11.231l-.037-.065a9.7,9.7,0,0,0-6.316-4.679,14.512,14.512,0,0,0-7.906.522L33.047,10.957c.006-.107.011-.214.011-.321a5.75,5.75,0,0,0-3.023-5.03L22.269,1.1A5.912,5.912,0,0,0,18.822,0H0V19.607l10.56.007L24.8,27.888a5.7,5.7,0,0,0,2.88.807,5.631,5.631,0,0,0,2.631-.671L58.633,13.139a1.38,1.38,0,0,0,.553-1.908" transform="translate(6.926 64.811)" fill="#c4b097"/>
    <g id="Group_7" data-name="Group 7" transform="translate(0 59.863)">
      <path id="Clip_6-2" data-name="Clip 6" d="M0,0H15.736V31.37H0Z" transform="translate(0 0.131)" fill="none"/>
      <g id="Group_7-2" data-name="Group 7" clip-path="url(#clip-path)">
        <path id="Fill_5" data-name="Fill 5" d="M13.1,31.37H2.639A2.669,2.669,0,0,1,0,28.671V2.7A2.669,2.669,0,0,1,2.639,0H13.1a2.669,2.669,0,0,1,2.639,2.7V28.671a2.669,2.669,0,0,1-2.639,2.7" transform="translate(0 0.131)" fill="#92addf"/>
      </g>
    </g>
    <path id="Fill_8" data-name="Fill 8" d="M16.247,11.874A9.023,9.023,0,0,0,24.16,7.256a9.652,9.652,0,0,0,1.56-4.8L19.487,4.483s0-.005,0-.008c-.035.076-.073.15-.113.222-.785,1.415-2.687,2.576-5.472,1.224L4.087.359a2.752,2.752,0,0,0-3.722.979,2.648,2.648,0,0,0,1,3.654l9.885,5.6c.044.025.088.048.132.07a10.91,10.91,0,0,0,4.867,1.21" transform="translate(20.779 71.737)" fill="#b29f84"/>
    <g id="Group_12" data-name="Group 12" transform="translate(25.726 0.495)">
      <path id="Clip_11-2" data-name="Clip 11" d="M0,0H59.3V28.554H0Z" transform="translate(0.073 0.047)" fill="none"/>
      <g id="Group_12-2" data-name="Group 12" clip-path="url(#clip-path-2)">
        <path id="Fill_10" data-name="Fill 10" d="M.183,17.378l.037.065A9.687,9.687,0,0,0,6.528,22.1a14.546,14.546,0,0,0,7.9-.519l11.865-3.93c-.006.106-.011.213-.011.32a5.718,5.718,0,0,0,3.019,5l7.756,4.481a5.921,5.921,0,0,0,3.443,1.1H59.3V9.043L48.748,9.036,34.525.8A5.711,5.711,0,0,0,31.649,0a5.641,5.641,0,0,0-2.628.667L.735,15.479a1.371,1.371,0,0,0-.552,1.9" transform="translate(0.073 0.047)" fill="#c4b097"/>
      </g>
    </g>
    <g id="Group_15" data-name="Group 15" transform="translate(46.505 0.495)">
      <path id="Clip_14-2" data-name="Clip 14" d="M0,0H39.4V28.554H0Z" transform="translate(0.183 0.047)" fill="none"/>
      <g id="Group_15-2" data-name="Group 15" clip-path="url(#clip-path-3)">
        <path id="Fill_13" data-name="Fill 13" d="M28.816,9.036,14.55.8A5.742,5.742,0,0,0,11.665,0,5.67,5.67,0,0,0,9.029.668L0,5.381V19.726L6.288,17.65c-.006.106-.011.213-.011.32a5.716,5.716,0,0,0,3.029,5l7.78,4.481a5.951,5.951,0,0,0,3.454,1.1H39.4V9.043Z" transform="translate(0.183 0.047)" fill="#c4b097"/>
      </g>
    </g>
    <path id="Fill_16" data-name="Fill 16" d="M2.655,0H13.177a2.69,2.69,0,0,1,2.655,2.724V28.939a2.69,2.69,0,0,1-2.655,2.724H2.655A2.69,2.69,0,0,1,0,28.939V2.724A2.69,2.69,0,0,1,2.655,0" transform="translate(77.179 1.484)" fill="#1b2f54"/>
    <path id="Fill_18" data-name="Fill 18" d="M9.48,0A9.023,9.023,0,0,0,1.566,4.618a9.652,9.652,0,0,0-1.56,4.8L6.24,7.391s0,.006,0,.008c.035-.076.073-.15.113-.222C7.137,5.761,9.039,4.6,11.824,5.952l9.815,5.562a2.752,2.752,0,0,0,3.722-.979,2.648,2.648,0,0,0-1-3.654l-9.885-5.6c-.044-.025-.088-.048-.132-.07A10.91,10.91,0,0,0,9.48,0" transform="translate(46.505 10.389)" fill="#b29f84"/>
    <path id="Fill_20" data-name="Fill 20" d="M19.609,4.983l-.037-.064A9.574,9.574,0,0,0,13.337.324,14.4,14.4,0,0,0,5.532.836L0,2.665V16.821L19.063,6.856a1.352,1.352,0,0,0,.546-1.873" transform="translate(46.505 70.747)" fill="#c4b097"/>
    <path id="Fill_22" data-name="Fill 22" d="M7.216,7.827A57.988,57.988,0,0,0,3.933,2.972C2.364.917,1.424,0,0,0V31.663A11.959,11.959,0,0,0,11.874,19.647c0-3.445-2.533-8.329-4.657-11.82" transform="translate(47.495 30.179)" fill="#e03c61"/>
  </g>
</svg>
