<svg xmlns="http://www.w3.org/2000/svg" xmlns:xlink="http://www.w3.org/1999/xlink" width="28.071" height="52.447" viewBox="0 0 28.071 52.447">
  <defs>
    <clipPath id="clip-path">
      <path id="Clip_2" data-name="Clip 2" d="M0,0H28.071V52.447H0Z" transform="translate(0.001 0.147)" fill="none"/>
    </clipPath>
  </defs>
  <g id="Group_2" data-name="Group 2" transform="translate(-704.001 -710.148)">
    <g id="Group_3" data-name="Group 3" transform="translate(704 710)">
      <path id="Clip_2-2" data-name="Clip 2" d="M0,0H28.071V52.447H0Z" transform="translate(0.001 0.147)" fill="none"/>
      <g id="Group_3-2" data-name="Group 3" clip-path="url(#clip-path)">
        <path id="Fill_1" data-name="Fill 1" d="M14.036,52.448A14.035,14.035,0,0,1,0,38.446V14a14.036,14.036,0,0,1,28.072,0V38.446A14.034,14.034,0,0,1,14.036,52.448Zm0-50.519A12.1,12.1,0,0,0,1.933,14V38.446a12.1,12.1,0,0,0,24.205,0V14A12.1,12.1,0,0,0,14.036,1.929Z" transform="translate(0.001 0.147)" fill="#fff"/>
      </g>
    </g>
    <path id="Fill_4" data-name="Fill 4" d="M5.5,11A5.5,5.5,0,1,1,11,5.5,5.506,5.506,0,0,1,5.5,11Zm0-9.092A3.592,3.592,0,1,0,9.093,5.5,3.6,3.6,0,0,0,5.5,1.908Z" transform="translate(713 720)" fill="#fff"/>
  </g>
</svg>
