<svg xmlns="http://www.w3.org/2000/svg" width="32" height="32" viewBox="0 0 32 32">
  <g id="Full_screen" transform="translate(-0.72 -0.4)">
    <path id="Shape" d="M11.927,1h0a1.5,1.5,0,0,0-.82-.82h0a1.49,1.49,0,0,0-.57-.18h-6a1.5,1.5,0,0,0,0,3h2.38L.477,9.44A1.5,1.5,0,1,0,2.6,11.56l6.44-6.44V7.5a1.5,1.5,0,0,0,3,0v-6A1.49,1.49,0,0,0,11.927,1Z" transform="translate(20.683 0.4)" fill="#fff"/>
    <path id="Shape-2" data-name="Shape" d="M9.94.4,3,7.343V4.963a1.5,1.5,0,1,0-3,0v6a1.5,1.5,0,0,0,1.5,1.5h6a1.5,1.5,0,0,0,0-3H5.12l6.94-6.94A1.5,1.5,0,0,0,9.94.4Z" transform="translate(0.72 19.937)" fill="#fff"/>
    <path id="Shape-3" data-name="Shape" d="M10.463,3.463a1.5,1.5,0,0,0-1.5,1.5v1.88L2.523.4A1.5,1.5,0,0,0,.4,2.523l6.94,6.94H4.463a1.5,1.5,0,1,0,0,3h6a1.5,1.5,0,0,0,1.5-1.5v-6A1.5,1.5,0,0,0,10.463,3.463Z" transform="translate(20.757 19.937)" fill="#fff"/>
    <path id="Shape-4" data-name="Shape" d="M5.62,3H7.5a1.5,1.5,0,0,0,0-3h-6A1.5,1.5,0,0,0,0,1.5v6a1.5,1.5,0,0,0,3,0V4.62l6.94,6.94a1.5,1.5,0,0,0,2.12-2.12Z" transform="translate(0.72 0.4)" fill="#fff"/>
  </g>
</svg>
